<svg version="1.1" id="Layer_1" xmlns="http://www.w3.org/2000/svg" xmlns:xlink="http://www.w3.org/1999/xlink" x="0px" y="0px"
	 width="100%" viewBox="0 0 512 512" enable-background="new 0 0 512 512" xml:space="preserve">
<path fill="#FFFFFF" opacity="1.000000" stroke="none" 
	d="
M1.000001,381.000000 
	C1.000000,254.376175 1.000000,127.752342 1.000000,1.064257 
	C171.566086,1.064257 342.132202,1.064257 513.000000,1.064257 
	C513.000000,127.356499 513.000000,253.713242 512.698303,380.366119 
	C510.521576,379.235870 508.799927,377.508240 506.734192,376.456421 
	C503.910919,375.018829 500.825897,374.095337 497.913330,372.555328 
	C504.955200,348.795166 506.436920,325.011444 504.092529,300.797821 
	C502.105743,280.277802 495.950623,261.079956 487.215576,242.588776 
	C479.729431,226.741364 468.540802,213.313675 458.623962,199.047928 
	C452.463776,190.186264 446.749725,181.014450 440.999939,171.677567 
	C443.176544,169.682404 445.277496,168.085754 447.185913,166.285080 
	C458.336182,155.764664 467.048065,143.511322 472.901093,129.320618 
	C482.798676,105.323975 484.784088,81.030609 475.167664,56.423168 
	C461.315002,20.975695 425.531342,9.056492 392.305817,21.380148 
	C375.876556,27.473915 362.462524,37.850487 351.604706,51.804039 
	C339.504578,45.965340 328.006348,39.544823 315.891266,34.651581 
	C301.719604,28.927696 286.613770,26.172001 271.370575,25.123699 
	C261.768311,24.463331 252.076248,24.778116 242.439240,25.099184 
	C237.920639,25.249727 233.436951,26.448582 228.524200,27.110769 
	C204.422379,30.403177 182.733246,39.161987 163.767685,51.016350 
	C159.487152,47.192711 155.671997,43.976639 152.071747,40.535709 
	C136.208344,25.374306 117.896355,16.470116 95.410576,16.926357 
	C70.970840,17.422245 53.417065,28.964998 42.141441,49.959419 
	C31.986155,68.867851 30.643892,89.440804 35.258770,109.996384 
	C40.824913,134.789093 53.562710,155.623535 74.386787,171.999969 
	C65.375084,184.753723 56.867737,197.640259 47.498577,209.866333 
	C31.085215,231.284592 19.332701,254.807724 12.989859,281.052734 
	C8.668251,298.934448 8.666110,317.112610 9.079114,335.312836 
	C9.175653,339.567139 9.745710,343.860565 10.586638,348.037598 
	C12.265512,356.376831 14.282915,364.647888 15.937963,373.249023 
	C10.810279,376.033966 5.905141,378.516998 1.000001,381.000000 
z"/>
<path fill="#FFFFFF" opacity="1.000000" stroke="none" 
	d="
M513.000000,389.000000 
	C513.000000,430.309540 513.000000,471.619049 513.000000,512.964294 
	C342.455444,512.964294 171.910904,512.964294 1.000000,512.964294 
	C1.000000,471.979828 1.000000,430.958588 1.309987,389.647400 
	C3.742525,390.571594 5.949683,392.922668 7.970690,392.772247 
	C12.741699,392.417175 17.424095,390.871368 22.417961,390.029327 
	C25.468819,395.846832 27.998360,401.580933 31.066133,407.011017 
	C39.674114,422.247528 50.207397,436.031342 62.991341,448.026459 
	C63.002983,448.001282 62.947674,448.005157 63.029778,448.259796 
	C63.407978,448.695190 63.704079,448.875916 64.002502,449.025879 
	C64.004822,448.995087 63.943188,448.998993 64.015976,449.230042 
	C64.262756,449.782013 64.531853,449.930176 65.201508,450.058777 
	C68.608589,452.944733 71.672394,455.721802 74.818275,458.402557 
	C89.695969,471.080536 106.699760,480.094971 124.886230,486.912079 
	C146.819702,495.133759 169.580322,498.174988 193.405579,496.959473 
	C196.870651,496.974884 199.878036,497.117035 202.867142,496.943878 
	C219.067383,496.005341 235.270096,494.086487 251.458755,494.211639 
	C275.493652,494.397461 299.517151,496.019867 323.546204,497.014435 
	C342.753082,497.809418 361.611023,495.705231 379.984863,489.933044 
	C412.883026,479.598022 440.739166,461.594147 463.220398,434.984497 
	C463.656708,434.567535 463.853607,434.275177 464.019684,433.988190 
	C463.988861,433.993561 464.001801,434.054779 464.320496,433.923401 
	C465.634369,432.489716 466.608398,431.170624 467.628021,429.887726 
	C477.313660,417.700592 485.095367,404.388336 491.567596,390.059967 
	C494.595825,390.841675 497.207764,391.775818 499.891571,392.402069 
	C504.810730,393.549866 509.647278,394.038391 513.000000,389.000000 
z"/>
<path fill="#DCBA96" opacity="1.000000" stroke="none" 
	d="
M513.000000,388.555847 
	C509.647278,394.038391 504.810730,393.549866 499.891571,392.402069 
	C497.207764,391.775818 494.595825,390.841675 491.375580,389.729187 
	C484.710999,387.945587 478.622345,386.479248 472.239166,384.802490 
	C459.018860,382.738525 446.146545,380.118683 433.154633,379.211365 
	C413.773956,377.857819 394.312561,377.536865 374.878082,377.133942 
	C366.589294,376.962097 358.284088,377.811096 349.982025,377.970276 
	C344.405396,378.077240 341.054749,374.961975 341.020538,370.145905 
	C340.991882,366.111328 344.868195,362.357300 349.612549,362.048035 
	C355.905304,361.637787 362.210693,361.056946 368.505585,361.113312 
	C386.303955,361.272675 404.109344,361.470612 421.892487,362.158112 
	C430.806458,362.502747 439.670929,364.020233 448.571320,364.864410 
	C454.076050,365.386505 459.606293,365.640137 465.455078,366.187195 
	C470.380676,367.468567 474.948395,368.714355 479.578644,369.651398 
	C485.644318,370.878967 491.759308,371.862793 497.853088,372.951477 
	C500.825897,374.095337 503.910919,375.018829 506.734192,376.456421 
	C508.799927,377.508240 510.521576,379.235870 512.698303,380.831116 
	C513.000000,383.370575 513.000000,385.741119 513.000000,388.555847 
z"/>
<path fill="#DCBA96" opacity="1.000000" stroke="none" 
	d="
M22.142330,389.807159 
	C17.424095,390.871368 12.741699,392.417175 7.970690,392.772247 
	C5.949683,392.922668 3.742525,390.571594 1.309987,389.178711 
	C1.000000,386.629425 1.000000,384.258881 1.000001,381.444153 
	C5.905141,378.516998 10.810279,376.033966 16.354927,373.286530 
	C20.692268,372.341125 24.394995,371.685577 28.087002,370.974365 
	C38.371262,368.993286 48.651077,366.989075 59.388580,365.001312 
	C67.912224,364.305756 75.979942,363.602905 84.477745,362.918762 
	C95.669624,362.308044 106.428474,361.227051 117.193916,361.156952 
	C132.652908,361.056244 148.117325,361.664917 163.578049,362.029541 
	C168.527832,362.146271 172.856461,365.908081 172.938385,369.959869 
	C173.039062,374.939240 169.565857,378.096527 163.633102,377.973053 
	C155.664932,377.807220 147.700500,377.069580 139.737823,377.118958 
	C125.439796,377.207581 111.143234,377.662079 96.848625,378.056580 
	C94.213936,378.129272 91.591370,378.640961 88.506790,378.955444 
	C82.099457,379.323364 76.122986,379.455200 70.204559,380.110962 
	C63.830372,380.817230 57.510574,382.014404 50.725769,382.993042 
	C47.840897,383.340240 45.339912,383.470062 42.964523,384.085052 
	C35.997021,385.889008 29.079456,387.885864 22.142330,389.807159 
z"/>
<path fill="#FFC850" opacity="1.000000" stroke="none" 
	d="
M497.913330,372.555298 
	C491.759308,371.862793 485.644318,370.878967 479.578644,369.651398 
	C474.948395,368.714355 470.380676,367.468567 465.309692,365.865601 
	C461.744263,361.272003 459.141052,356.665405 455.483978,353.157440 
	C434.324005,332.860199 408.692078,328.127716 380.688843,332.645081 
	C365.368317,335.116547 350.502136,339.636902 334.496307,338.239258 
	C304.896545,335.654633 282.621216,312.171265 283.023193,282.477875 
	C283.099121,276.868500 283.450806,271.214569 282.915039,265.654449 
	C281.436890,250.314240 266.676178,240.520050 252.181824,245.212402 
	C243.262009,248.100052 237.960373,254.825546 235.071350,263.443024 
	C232.222107,271.941895 230.076553,280.686157 227.020630,289.104370 
	C218.577713,312.362335 202.686066,326.857330 177.743759,331.213257 
	C161.695557,334.015961 145.589691,333.906738 129.606110,332.653748 
	C112.308296,331.297668 96.239510,333.887573 80.969925,341.483948 
	C80.661766,339.271973 80.136719,337.491882 80.057457,335.692200 
	C79.317390,318.887604 80.218163,302.118408 83.403618,285.641693 
	C88.149193,261.095306 98.338966,238.654556 111.106377,217.220749 
	C123.881508,195.773972 135.239868,173.526855 143.084351,149.766724 
	C151.963593,122.872375 161.020157,96.163414 178.758469,73.454163 
	C187.768570,61.919090 197.269821,50.853848 209.047058,41.988487 
	C215.652130,37.016491 222.305710,32.108936 228.937439,27.172344 
	C233.436951,26.448582 237.920639,25.249727 242.439240,25.099184 
	C252.076248,24.778116 261.768311,24.463331 271.370575,25.123699 
	C286.613770,26.172001 301.719604,28.927696 315.891266,34.651581 
	C328.006348,39.544823 339.504578,45.965340 351.756470,52.116501 
	C358.862579,57.699787 365.500702,62.860619 372.107788,68.060867 
	C375.440369,70.683868 378.716705,73.378288 382.049194,76.380554 
	C382.394806,77.292564 382.599152,77.973572 383.040497,78.420593 
	C399.710876,95.305298 411.727295,115.159363 421.082520,136.854095 
	C424.805695,145.488113 429.664581,153.632416 434.141663,162.318619 
	C436.463074,165.752350 438.649231,168.867096 440.835419,171.981857 
	C446.749725,181.014450 452.463776,190.186264 458.623962,199.047928 
	C468.540802,213.313675 479.729431,226.741364 487.215576,242.588776 
	C495.950623,261.079956 502.105743,280.277802 504.092529,300.797821 
	C506.436920,325.011444 504.955200,348.795166 497.913330,372.555298 
M368.881195,279.136078 
	C368.918915,272.314667 369.155151,265.487457 368.954559,258.673035 
	C368.483826,242.681931 351.711517,230.006073 335.434601,233.660690 
	C321.190613,237.392456 313.171967,247.522873 313.007141,262.079254 
	C312.948822,267.228149 312.875305,272.383118 313.047974,277.527252 
	C313.544189,292.310333 325.075256,304.197266 339.482880,304.923706 
	C354.337372,305.672699 366.606354,295.193573 368.881195,279.136078 
M200.879776,279.137146 
	C200.917694,272.315674 201.153946,265.488342 200.953735,258.673859 
	C200.483871,242.682312 183.711945,230.005951 167.434570,233.660690 
	C153.190430,237.392639 145.171143,247.523926 145.007111,262.078918 
	C144.949097,267.227783 144.876038,272.382660 145.047775,277.526855 
	C145.541214,292.307068 157.074234,304.196869 171.482071,304.923645 
	C186.338654,305.673096 198.613297,295.189240 200.879776,279.137146 
z"/>
<path fill="#EBAF4B" opacity="1.000000" stroke="none" 
	d="
M228.524200,27.110767 
	C222.305710,32.108936 215.652130,37.016491 209.047058,41.988487 
	C197.269821,50.853848 187.768570,61.919090 178.758469,73.454163 
	C161.020157,96.163414 151.963593,122.872375 143.084351,149.766724 
	C135.239868,173.526855 123.881508,195.773972 111.106377,217.220749 
	C98.338966,238.654556 88.149193,261.095306 83.403618,285.641693 
	C80.218163,302.118408 79.317390,318.887604 80.057457,335.692200 
	C80.136719,337.491882 80.661766,339.271973 80.999588,341.543823 
	C81.019150,342.026459 81.071808,342.149231 80.749161,342.246948 
	C71.430359,348.156342 63.776318,355.241669 58.932648,364.993988 
	C48.651077,366.989075 38.371262,368.993286 28.087002,370.974365 
	C24.394995,371.685577 20.692268,372.341125 16.577473,372.984619 
	C14.282915,364.647888 12.265512,356.376831 10.586638,348.037598 
	C9.745710,343.860565 9.175653,339.567139 9.079114,335.312836 
	C8.666110,317.112610 8.668251,298.934448 12.989859,281.052734 
	C19.332701,254.807724 31.085215,231.284592 47.498577,209.866333 
	C56.867737,197.640259 65.375084,184.753723 74.386787,171.999969 
	C53.562710,155.623535 40.824913,134.789093 35.258770,109.996384 
	C30.643892,89.440804 31.986155,68.867851 42.141441,49.959419 
	C53.417065,28.964998 70.970840,17.422245 95.410576,16.926357 
	C117.896355,16.470116 136.208344,25.374306 152.071747,40.535709 
	C155.671997,43.976639 159.487152,47.192711 163.767685,51.016350 
	C182.733246,39.161987 204.422379,30.403177 228.524200,27.110767 
M123.494186,86.036812 
	C125.587578,83.894226 127.683754,81.754333 129.773560,79.608261 
	C131.763260,77.565010 131.935074,75.976402 130.037994,73.252914 
	C123.445328,63.788338 115.035225,56.277885 105.360207,50.419029 
	C96.175072,44.856827 86.062668,41.514637 74.963264,43.530411 
	C56.677563,46.851303 46.369640,63.515903 45.089886,81.680344 
	C43.682518,101.656197 48.794346,120.166878 59.167294,137.200775 
	C64.682747,146.257965 70.729568,154.938461 80.640800,161.503052 
	C94.153465,135.867371 103.509293,108.270813 123.494186,86.036812 
z"/>
<path fill="#EBAF4B" opacity="1.000000" stroke="none" 
	d="
M440.999939,171.677567 
	C438.649231,168.867096 436.463074,165.752350 434.440735,162.174683 
	C447.327942,150.562912 457.206177,137.354111 463.174622,121.453285 
	C469.916992,103.490715 472.621216,85.225693 465.992279,66.565643 
	C459.986176,49.658806 444.144073,40.709126 426.598053,43.842178 
	C415.371857,45.846748 406.036530,51.466000 397.847687,58.882717 
	C392.103394,64.085358 387.262695,70.285652 382.018494,76.040421 
	C378.716705,73.378288 375.440369,70.683868 372.107788,68.060867 
	C365.500702,62.860619 358.862579,57.699787 352.085510,52.210213 
	C362.462524,37.850487 375.876556,27.473915 392.305817,21.380148 
	C425.531342,9.056492 461.315002,20.975695 475.167664,56.423168 
	C484.784088,81.030609 482.798676,105.323975 472.901093,129.320618 
	C467.048065,143.511322 458.336182,155.764664 447.185913,166.285080 
	C445.277496,168.085754 443.176544,169.682404 440.999939,171.677567 
z"/>
<path fill="#FAEBC8" opacity="1.000000" stroke="none" 
	d="
M80.989487,341.966614 
	C96.239510,333.887573 112.308296,331.297668 129.606110,332.653748 
	C145.589691,333.906738 161.695557,334.015961 177.743759,331.213257 
	C202.686066,326.857330 218.577713,312.362335 227.020630,289.104370 
	C230.076553,280.686157 232.222107,271.941895 235.071350,263.443024 
	C237.960373,254.825546 243.262009,248.100052 252.181824,245.212402 
	C266.676178,240.520050 281.436890,250.314240 282.915039,265.654449 
	C283.450806,271.214569 283.099121,276.868500 283.023193,282.477875 
	C282.621216,312.171265 304.896545,335.654633 334.496307,338.239258 
	C350.502136,339.636902 365.368317,335.116547 380.688843,332.645081 
	C408.692078,328.127716 434.324005,332.860199 455.483978,353.157440 
	C459.141052,356.665405 461.744263,361.272003 464.979675,365.692688 
	C459.606293,365.640137 454.076050,365.386505 448.571320,364.864410 
	C439.670929,364.020233 430.806458,362.502747 421.892487,362.158112 
	C404.109344,361.470612 386.303955,361.272675 368.505585,361.113312 
	C362.210693,361.056946 355.905304,361.637787 349.612549,362.048035 
	C344.868195,362.357300 340.991882,366.111328 341.020538,370.145905 
	C341.054749,374.961975 344.405396,378.077240 349.982025,377.970276 
	C358.284088,377.811096 366.589294,376.962097 374.878082,377.133942 
	C394.312561,377.536865 413.773956,377.857819 433.154633,379.211365 
	C446.146545,380.118683 459.018860,382.738525 472.361450,385.260193 
	C473.891754,398.792328 473.052704,411.403748 468.053864,423.507324 
	C466.616577,426.987396 465.347839,430.537048 464.001831,434.054779 
	C464.001801,434.054779 463.988861,433.993561 463.757385,434.075256 
	C463.344299,434.474304 463.162659,434.791687 462.981018,435.109070 
	C440.739166,461.594147 412.883026,479.598022 379.984863,489.933044 
	C361.611023,495.705231 342.753082,497.809418 323.546204,497.014435 
	C299.517151,496.019867 275.493652,494.397461 251.458755,494.211639 
	C235.270096,494.086487 219.067383,496.005341 202.867142,496.943878 
	C199.878036,497.117035 196.870651,496.974884 193.177826,496.692444 
	C182.015121,490.795654 171.098892,485.872314 161.178848,479.417847 
	C144.971390,468.872467 131.174667,455.411591 119.595901,439.918427 
	C114.190361,432.685425 109.834190,424.668182 105.356628,416.847168 
	C120.838272,414.133728 135.940964,411.417694 151.104889,409.102783 
	C157.411041,408.140106 161.345505,405.302094 160.960556,400.807953 
	C160.522827,395.697723 156.381210,392.447266 150.210403,393.094086 
	C141.348694,394.023010 132.498108,395.185455 123.709450,396.648682 
	C114.432205,398.193268 105.233238,400.208008 95.996017,401.632690 
	C95.594101,400.015228 95.188118,398.784912 94.799751,397.549072 
	C92.851707,391.350189 90.908272,385.149872 88.963211,378.950043 
	C91.591370,378.640961 94.213936,378.129272 96.848625,378.056580 
	C111.143234,377.662079 125.439796,377.207581 139.737823,377.118958 
	C147.700500,377.069580 155.664932,377.807220 163.633102,377.973053 
	C169.565857,378.096527 173.039062,374.939240 172.938385,369.959869 
	C172.856461,365.908081 168.527832,362.146271 163.578049,362.029541 
	C148.117325,361.664917 132.652908,361.056244 117.193916,361.156952 
	C106.428474,361.227051 95.669624,362.308044 84.452194,362.521301 
	C83.021645,355.453156 82.046722,348.801208 81.071808,342.149231 
	C81.071808,342.149231 81.019150,342.026459 80.989487,341.966614 
M237.127136,355.956055 
	C228.427475,358.322510 220.977280,362.692169 214.979584,369.511810 
	C207.344498,378.193237 206.682556,389.759338 214.113190,398.562531 
	C223.772675,410.006165 237.015060,415.883087 250.987717,419.800751 
	C258.187439,421.819427 265.686127,420.893372 272.843964,416.055786 
	C279.700500,412.372864 287.182373,409.509613 293.292450,404.848206 
	C309.505249,392.479553 308.713165,374.598389 291.701324,363.203857 
	C275.066986,352.062134 256.874542,350.558960 237.127136,355.956055 
M317.731537,433.939362 
	C315.696686,435.598114 313.369263,437.003418 311.676086,438.958160 
	C302.915985,449.070984 284.743195,452.119659 272.712830,445.317139 
	C262.059418,439.293243 251.630859,439.556122 241.016785,445.451965 
	C229.116455,452.062347 211.101837,449.068787 202.499512,439.066772 
	C201.416382,437.807404 200.220627,436.625244 198.963211,435.539124 
	C195.153229,432.248047 190.194275,432.194061 187.259750,435.336884 
	C184.195694,438.618378 184.326553,443.345367 187.584518,447.068848 
	C203.605835,465.379395 227.255905,470.254181 249.016785,459.359619 
	C254.624084,456.552307 259.447510,456.592560 265.041626,459.390869 
	C286.775726,470.262665 310.442932,465.315399 326.475861,447.077423 
	C329.483429,443.656219 329.654327,440.087616 327.546661,436.542145 
	C325.541046,433.168304 322.286926,432.119904 317.731537,433.939362 
M442.871063,424.522095 
	C448.276031,419.063599 447.513245,413.255035 440.482086,410.332977 
	C433.599396,407.472687 426.468781,405.139343 419.317963,403.007538 
	C400.823669,397.494019 381.815155,394.675598 362.633759,393.083649 
	C356.731049,392.593750 353.148071,395.881836 353.014893,400.798737 
	C352.895508,405.206207 356.530548,408.455231 361.933502,409.029083 
	C368.519348,409.728546 375.110504,410.439728 381.659210,411.415436 
	C399.916412,414.135681 417.777313,418.409210 435.065979,425.022156 
	C437.126709,425.810394 439.800629,424.995605 442.871063,424.522095 
z"/>
<path fill="#F5DCB3" opacity="1.000000" stroke="none" 
	d="
M105.002380,417.006409 
	C109.834190,424.668182 114.190361,432.685425 119.595901,439.918427 
	C131.174667,455.411591 144.971390,468.872467 161.178848,479.417847 
	C171.098892,485.872314 182.015121,490.795654 192.711700,496.673645 
	C169.580322,498.174988 146.819702,495.133759 124.886230,486.912079 
	C106.699760,480.094971 89.695969,471.080536 74.818275,458.402557 
	C71.672394,455.721802 68.608589,452.944733 65.141418,449.820374 
	C64.590256,449.107391 64.312698,448.964142 63.943188,448.998993 
	C63.943188,448.998993 64.004822,448.995087 63.960182,448.739990 
	C63.592915,448.325012 63.270294,448.165070 62.947674,448.005157 
	C62.947674,448.005157 63.002983,448.001282 63.070717,447.651917 
	C61.817982,444.652649 60.515186,441.993744 59.174198,439.354248 
	C50.092316,421.478485 47.175308,402.729370 51.167046,382.997375 
	C57.510574,382.014404 63.830372,380.817230 70.204559,380.110962 
	C76.122986,379.455200 82.099457,379.323364 88.506790,378.955444 
	C90.908272,385.149872 92.851707,391.350189 94.799751,397.549072 
	C95.188118,398.784912 95.594101,400.015228 95.764359,401.908447 
	C88.656593,404.910217 81.653328,406.955505 74.957352,409.739807 
	C72.308098,410.841400 69.147980,413.177216 68.296188,415.662476 
	C66.027206,422.282745 71.764221,427.349243 78.540916,425.261383 
	C87.371002,422.540863 96.182747,419.760834 105.002380,417.006409 
z"/>
<path fill="#ECB04C" opacity="1.000000" stroke="none" 
	d="
M50.725769,382.993042 
	C47.175308,402.729370 50.092316,421.478485 59.174198,439.354248 
	C60.515186,441.993744 61.817982,444.652649 63.059074,447.677094 
	C50.207397,436.031342 39.674114,422.247528 31.066133,407.011017 
	C27.998360,401.580933 25.468819,395.846832 22.417963,390.029327 
	C29.079456,387.885864 35.997021,385.889008 42.964523,384.085052 
	C45.339912,383.470062 47.840897,383.340240 50.725769,382.993042 
z"/>
<path fill="#FFC953" opacity="1.000000" stroke="none" 
	d="
M464.320496,433.923401 
	C465.347839,430.537048 466.616577,426.987396 468.053864,423.507324 
	C473.052704,411.403748 473.891754,398.792328 472.655945,385.470581 
	C478.622345,386.479248 484.710999,387.945587 490.991699,389.742737 
	C485.095367,404.388336 477.313660,417.700592 467.628021,429.887726 
	C466.608398,431.170624 465.634369,432.489716 464.320496,433.923401 
z"/>
<path fill="#FFC953" opacity="1.000000" stroke="none" 
	d="
M463.220398,434.984497 
	C463.162659,434.791687 463.344299,434.474304 463.788208,434.069885 
	C463.853607,434.275177 463.656708,434.567535 463.220398,434.984497 
z"/>
<path fill="#ECB04C" opacity="1.000000" stroke="none" 
	d="
M63.029778,448.259796 
	C63.270294,448.165070 63.592915,448.325012 63.957855,448.770782 
	C63.704079,448.875916 63.407978,448.695190 63.029778,448.259796 
z"/>
<path fill="#ECB04C" opacity="1.000000" stroke="none" 
	d="
M64.015976,449.230042 
	C64.312698,448.964142 64.590256,449.107391 64.835968,449.667114 
	C64.531853,449.930176 64.262756,449.782013 64.015976,449.230042 
z"/>
<path fill="#F5DBB3" opacity="1.000000" stroke="none" 
	d="
M80.749153,342.246948 
	C82.046722,348.801208 83.021645,355.453156 84.022110,362.502563 
	C75.979942,363.602905 67.912224,364.305756 59.388580,365.001312 
	C63.776318,355.241669 71.430359,348.156342 80.749153,342.246948 
z"/>
<path fill="#FF8087" opacity="1.000000" stroke="none" 
	d="
M382.049194,76.380547 
	C387.262695,70.285652 392.103394,64.085358 397.847687,58.882717 
	C406.036530,51.466000 415.371857,45.846748 426.598053,43.842178 
	C444.144073,40.709126 459.986176,49.658806 465.992279,66.565643 
	C472.621216,85.225693 469.916992,103.490715 463.174622,121.453285 
	C457.206177,137.354111 447.327942,150.562912 434.305481,161.855713 
	C429.664581,153.632416 424.805695,145.488113 421.082520,136.854095 
	C411.727295,115.159363 399.710876,95.305298 383.040497,78.420593 
	C382.599152,77.973572 382.394806,77.292564 382.049194,76.380547 
z"/>
<path fill="#4D414E" opacity="1.000000" stroke="none" 
	d="
M200.607758,280.047211 
	C198.613297,295.189240 186.338654,305.673096 171.482071,304.923645 
	C157.074234,304.196869 145.541214,292.307068 145.047775,277.526855 
	C144.876038,272.382660 144.949097,267.227783 145.007111,262.078918 
	C145.171143,247.523926 153.190430,237.392639 167.995605,233.987640 
	C168.797943,236.737823 169.039276,239.161057 168.990326,241.737183 
	C159.262238,245.335342 157.834610,259.726471 169.198853,264.906464 
	C169.083084,268.049652 168.951660,270.702728 169.021378,273.350525 
	C169.313324,284.440155 179.858780,291.969513 190.206375,287.869293 
	C194.095947,286.328033 197.164764,282.715454 200.607758,280.047211 
z"/>
<path fill="#4D414E" opacity="1.000000" stroke="none" 
	d="
M368.609802,280.045990 
	C366.606354,295.193573 354.337372,305.672699 339.482880,304.923706 
	C325.075256,304.197266 313.544189,292.310333 313.047974,277.527252 
	C312.875305,272.383118 312.948822,267.228149 313.007141,262.079254 
	C313.171967,247.522873 321.190613,237.392456 335.995605,233.987640 
	C336.797943,236.737823 337.039276,239.161057 336.990356,241.737183 
	C327.262543,245.335052 325.834290,259.726196 337.198822,264.906433 
	C337.083069,268.049774 336.951599,270.702972 337.021393,273.350891 
	C337.313782,284.441284 347.859558,291.969910 358.208008,287.868896 
	C362.097778,286.327423 365.166687,282.714539 368.609802,280.045990 
z"/>
<path fill="#5F5461" opacity="1.000000" stroke="none" 
	d="
M169.280594,241.584305 
	C169.039276,239.161057 168.797943,236.737823 168.348816,234.013214 
	C183.711945,230.005951 200.483871,242.682312 200.953735,258.673859 
	C201.153946,265.488342 200.917694,272.315674 200.743774,279.592163 
	C197.164764,282.715454 194.095947,286.328033 190.206375,287.869293 
	C179.858780,291.969513 169.313324,284.440155 169.021378,273.350525 
	C168.951660,270.702728 169.083084,268.049652 169.612640,264.930054 
	C175.548080,265.685211 179.867508,263.906250 182.908127,259.328339 
	C185.617523,255.249146 185.632477,250.921539 183.007706,246.793945 
	C179.773361,241.707718 174.982635,240.355377 169.280594,241.584305 
z"/>
<path fill="#5F5461" opacity="1.000000" stroke="none" 
	d="
M337.280640,241.584305 
	C337.039276,239.161057 336.797943,236.737823 336.348816,234.013214 
	C351.711517,230.006073 368.483826,242.681931 368.954559,258.673035 
	C369.155151,265.487457 368.918915,272.314667 368.745483,279.591034 
	C365.166687,282.714539 362.097778,286.327423 358.208008,287.868896 
	C347.859558,291.969910 337.313782,284.441284 337.021393,273.350891 
	C336.951599,270.702972 337.083069,268.049774 337.612610,264.930054 
	C343.548004,265.685181 347.867401,263.906281 350.908051,259.328339 
	C353.617493,255.249130 353.632477,250.921585 351.007751,246.793945 
	C347.773407,241.707764 342.982697,240.355347 337.280640,241.584305 
z"/>
<path fill="#FF8087" opacity="1.000000" stroke="none" 
	d="
M123.251144,86.296448 
	C103.509293,108.270813 94.153465,135.867371 80.640800,161.503052 
	C70.729568,154.938461 64.682747,146.257965 59.167294,137.200775 
	C48.794346,120.166878 43.682518,101.656197 45.089886,81.680344 
	C46.369640,63.515903 56.677563,46.851303 74.963264,43.530411 
	C86.062668,41.514637 96.175072,44.856827 105.360207,50.419029 
	C115.035225,56.277885 123.445328,63.788338 130.037994,73.252914 
	C131.935074,75.976402 131.763260,77.565010 129.773560,79.608261 
	C127.683754,81.754333 125.587578,83.894226 123.251144,86.296448 
z"/>
<path fill="#FF96A0" opacity="1.000000" stroke="none" 
	d="
M237.874176,355.869080 
	C256.874542,350.558960 275.066986,352.062134 291.701324,363.203857 
	C308.713165,374.598389 309.505249,392.479553 293.292450,404.848206 
	C287.182373,409.509613 279.700500,412.372864 272.267029,415.789795 
	C261.440186,409.766418 250.701080,404.905457 242.387360,396.045990 
	C232.196945,385.186584 230.181427,372.121979 237.445099,359.119507 
	C237.940414,358.232849 237.747192,356.961517 237.874176,355.869080 
z"/>
<path fill="#EBCAA1" opacity="1.000000" stroke="none" 
	d="
M318.100708,433.831665 
	C322.286926,432.119904 325.541046,433.168304 327.546661,436.542145 
	C329.654327,440.087616 329.483429,443.656219 326.475861,447.077423 
	C310.442932,465.315399 286.775726,470.262665 265.041626,459.390869 
	C259.447510,456.592560 254.624084,456.552307 249.016785,459.359619 
	C227.255905,470.254181 203.605835,465.379395 187.584518,447.068848 
	C184.326553,443.345367 184.195694,438.618378 187.259750,435.336884 
	C190.194275,432.194061 195.153229,432.248047 198.963211,435.539124 
	C200.220627,436.625244 201.416382,437.807404 202.499512,439.066772 
	C211.101837,449.068787 229.116455,452.062347 241.016785,445.451965 
	C251.630859,439.556122 262.059418,439.293243 272.712830,445.317139 
	C284.743195,452.119659 302.915985,449.070984 311.676086,438.958160 
	C313.369263,437.003418 315.696686,435.598114 318.100708,433.831665 
z"/>
<path fill="#FF8188" opacity="1.000000" stroke="none" 
	d="
M237.500671,355.912567 
	C237.747192,356.961517 237.940414,358.232849 237.445099,359.119507 
	C230.181427,372.121979 232.196945,385.186584 242.387360,396.045990 
	C250.701080,404.905457 261.440186,409.766418 271.895020,415.814209 
	C265.686127,420.893372 258.187439,421.819427 250.987717,419.800751 
	C237.015060,415.883087 223.772675,410.006165 214.113190,398.562531 
	C206.682556,389.759338 207.344498,378.193237 214.979584,369.511810 
	C220.977280,362.692169 228.427475,358.322510 237.500671,355.912567 
z"/>
<path fill="#DDBA97" opacity="1.000000" stroke="none" 
	d="
M442.530701,424.722961 
	C439.800629,424.995605 437.126709,425.810394 435.065979,425.022156 
	C417.777313,418.409210 399.916412,414.135681 381.659210,411.415436 
	C375.110504,410.439728 368.519348,409.728546 361.933502,409.029083 
	C356.530548,408.455231 352.895508,405.206207 353.014893,400.798737 
	C353.148071,395.881836 356.731049,392.593750 362.633759,393.083649 
	C381.815155,394.675598 400.823669,397.494019 419.317963,403.007538 
	C426.468781,405.139343 433.599396,407.472687 440.482086,410.332977 
	C447.513245,413.255035 448.276031,419.063599 442.530701,424.722961 
z"/>
<path fill="#DCBA97" opacity="1.000000" stroke="none" 
	d="
M105.356628,416.847168 
	C96.182747,419.760834 87.371002,422.540863 78.540916,425.261383 
	C71.764221,427.349243 66.027206,422.282745 68.296188,415.662476 
	C69.147980,413.177216 72.308098,410.841400 74.957352,409.739807 
	C81.653328,406.955505 88.656593,404.910217 95.768402,402.293091 
	C105.233238,400.208008 114.432205,398.193268 123.709450,396.648682 
	C132.498108,395.185455 141.348694,394.023010 150.210403,393.094086 
	C156.381210,392.447266 160.522827,395.697723 160.960556,400.807953 
	C161.345505,405.302094 157.411041,408.140106 151.104889,409.102783 
	C135.940964,411.417694 120.838272,414.133728 105.356628,416.847168 
z"/>
<path fill="#FCFCFC" opacity="1.000000" stroke="none" 
	d="
M168.990326,241.737183 
	C174.982635,240.355377 179.773361,241.707718 183.007706,246.793945 
	C185.632477,250.921539 185.617523,255.249146 182.908127,259.328339 
	C179.867508,263.906250 175.548080,265.685211 169.689484,264.437531 
	C157.834610,259.726471 159.262238,245.335342 168.990326,241.737183 
z"/>
<path fill="#FCFCFC" opacity="1.000000" stroke="none" 
	d="
M336.990356,241.737183 
	C342.982697,240.355347 347.773407,241.707764 351.007751,246.793945 
	C353.632477,250.921585 353.617493,255.249130 350.908051,259.328339 
	C347.867401,263.906281 343.548004,265.685181 337.689453,264.437500 
	C325.834290,259.726196 327.262543,245.335052 336.990356,241.737183 
z"/>
</svg>